# xmcd
#
# Track frame offsets:
#	150
#	28665
#	52486
#	70685
#	101649
#	124455
#	146717
#	169268
#	186332
#	202504
#	227448
#
# Disc length: 3363 seconds
#
# Revision: 1
# Processed by: cddbd v1.5.2PL0 Copyright (c) Steve Scherf et al.
# Submitted via: audiograbber 1.83.01
#
DISCID=a00d210b
DTITLE=Blues Company - Ain't Givin' Up
DYEAR=2019
DGENRE=Blues
TTITLE0=Ain't Givin' Up
TTITLE1=Guns
TTITLE2=The News
TTITLE3=Waiting For Springtime
TTITLE4=Sticks And Stones
TTITLE5=Georgia On My Mind
TTITLE6=One Shot
TTITLE7=Balsha's Dream
TTITLE8=Route 66
TTITLE9=I'm Mad
TTITLE10=Precious Lord
EXTD=
EXTT0=
EXTT1=
EXTT2=
EXTT3=
EXTT4=
EXTT5=
EXTT6=
EXTT7=
EXTT8=
EXTT9=
EXTT10=
PLAYORDER=
